Coordinates
version=1
nRows=7
nColumns=40
inDegrees=yes

Units are S.I. units (second, meters, Newtons, ...)
If the header above contains a line with 'inDegrees', this indicates whether rotational values are in degrees (yes) or radians (no).

endheader
time	pelvis_tilt	pelvis_list	pelvis_rotation	pelvis_tx	pelvis_ty	pelvis_tz	hip_flexion_r	hip_adduction_r	hip_rotation_r	knee_angle_r	knee_angle_r_beta	ankle_angle_r	subtalar_angle_r	mtp_angle_r	hip_flexion_l	hip_adduction_l	hip_rotation_l	knee_angle_l	knee_angle_l_beta	ankle_angle_l	subtalar_angle_l	mtp_angle_l	lumbar_extension	lumbar_bending	lumbar_rotation	arm_flex_r	arm_add_r	arm_rot_r	elbow_flex_r	pro_sup_r	wrist_flex_r	wrist_dev_r	arm_flex_l	arm_add_l	arm_rot_l	elbow_flex_l	pro_sup_l	wrist_flex_l	wrist_dev_l
      5.95000000	    -17.08121796	     -1.65578125	      6.56618800	     -0.35991799	      0.83711486	     -0.78449430	     59.97027070	     -2.25300469	    -10.46635689	     81.80822321	      1.42782285	     30.49023573	      0.00000000	      0.00000000	     30.60196873	    -11.66675244	     -3.84919621	    106.18385784	      1.85325793	    -23.04486389	      0.00000000	      0.00000000	     -5.58708898	      6.91526098	      2.70614854	     89.96275026	    -14.33481820	     15.86578590	     46.67653043	     81.09299698	      0.00000000	      0.00000000	     89.96222682	     -3.15222475	     14.94074956	     45.58018068	     81.56734161	      0.00000000	      0.00000000
      5.95500000	    -17.05893508	     -1.63267047	      6.54923853	     -0.35989354	      0.83794392	     -0.78442786	     59.83251439	     -2.27721738	    -10.50005528	     81.57970400	      1.42383444	     30.36263125	      0.00000000	      0.00000000	     30.58952560	    -11.67796785	     -3.88832253	    106.14935362	      1.85265572	    -23.01124203	      0.00000000	      0.00000000	     -5.60084352	      6.89340374	      2.71894286	     89.96274810	    -14.33224541	     15.92122997	     46.63042564	     81.10055822	      0.00000000	      0.00000000	     89.96225716	     -3.18355773	     14.97117305	     45.52753312	     81.57448444	      0.00000000	      0.00000000
      5.96000000	    -17.06177784	     -1.61894887	      6.53342828	     -0.35980962	      0.83860138	     -0.78455986	     59.80506495	     -2.30655239	    -10.49002089	     81.54477706	      1.42322485	     30.34267134	      0.00000000	      0.00000000	     30.58082433	    -11.68764280	     -3.89714706	    106.11320164	      1.85202475	    -22.99775297	      0.00000000	      0.00000000	     -5.57501763	      6.89936001	      2.72255176	     89.96269364	    -14.33465902	     15.91807550	     46.64672238	     81.10081208	      0.00000000	      0.00000000	     89.96208076	     -3.18115649	     14.96684152	     45.54382096	     81.57505050	      0.00000000	      0.00000000
      5.96500000	    -17.02952708	     -1.58652572	      6.53566432	     -0.35989436	      0.83953563	     -0.78450020	     59.66239190	     -2.34352130	    -10.50149647	     81.29303796	      1.41883117	     30.17425885	      0.00000000	      0.00000000	     30.55322649	    -11.68539451	     -3.90740241	    106.05824769	      1.85106562	    -22.94731669	      0.00000000	      0.00000000	     -5.59054900	      6.87105741	      2.72969857	     89.96270749	    -14.34272571	     15.97963888	     46.57478151	     81.11028748	      0.00000000	      0.00000000	     89.96215849	     -3.18048159	     15.01104712	     45.46895986	     81.58364222	      0.00000000	      0.00000000
      5.97000000	    -16.98473459	     -1.57034193	      6.52367908	     -0.35979823	      0.84034577	     -0.78443710	     59.54145553	     -2.36176019	    -10.53059183	     81.15754241	      1.41646633	     30.02401882	      0.00000000	      0.00000000	     30.49279332	    -11.71745294	     -3.93547175	    106.00670210	      1.85016598	    -22.90559724	      0.00000000	      0.00000000	     -5.61181007	      6.87396270	      2.74866907	     89.96278581	    -14.35030769	     16.03480864	     46.56296291	     81.12005893	      0.00000000	      0.00000000	     89.96217124	     -3.19713439	     15.05261450	     45.40970426	     81.59604867	      0.00000000	      0.00000000
      5.97500000	    -16.98820790	     -1.56538874	      6.51260651	     -0.35976524	      0.84093080	     -0.78444451	     59.51533909	     -2.37731477	    -10.53102036	     81.13323500	      1.41604208	     30.00930411	      0.00000000	      0.00000000	     30.50580788	    -11.73553828	     -3.94221599	    105.98124118	      1.84972160	    -22.89643376	      0.00000000	      0.00000000	     -5.58945838	      6.87700220	      2.75540402	     89.96269775	    -14.34725121	     16.02234480	     46.58445251	     81.11949052	      0.00000000	      0.00000000	     89.96212392	     -3.19895653	     15.04445421	     45.43087945	     81.59626418	      0.00000000	      0.00000000
      5.98000000	    -16.99515280	     -1.54419153	      6.49491479	     -0.35964924	      0.84165426	     -0.78453500	     59.47653390	     -2.40839919	    -10.53055053	     81.07881824	      1.41509233	     29.98568410	      0.00000000	      0.00000000	     30.50753783	    -11.74436774	     -3.96393474	    105.95749105	      1.84930709	    -22.88806328	      0.00000000	      0.00000000	     -5.55715049	      6.87823905	      2.77216765	     89.96262224	    -14.34838250	     16.01458693	     46.60002286	     81.11936678	      0.00000000	      0.00000000	     89.96206710	     -3.20784532	     15.03483941	     45.44883706	     81.59616218	      0.00000000	      0.00000000
